# xmcd
#
# Track frame offsets:
#	150
#	30725
#	86170
#	95160
#	124410
#	140160
#	178410
#	196035
#	217410
#	247785
#	268425
#
# Disc length: 3950 seconds
#
# Revision: 2
# Processed by: cddbd v1.5.1PL2 Copyright (c) Steve Scherf et al.
# Submitted via: EasyCDDAExtractor 8.0.2.1
#
DISCID=b50f6c0b
DTITLE=Rainbow - Tokyo 23-11-95 Disc 2
DYEAR=1995
DGENRE=Hard Rock
TTITLE0=Black Masquerade
TTITLE1=Ariel
TTITLE2=Since You Been Gone
TTITLE3=Perfect Strangers
TTITLE4=Waltzing Matilda
TTITLE5=Hall Of The Mountain King - Woman From Tokyo
TTITLE6=Greensleves
TTITLE7=Burn
TTITLE8=Maybe Next Time
TTITLE9=Traditional Song
TTITLE10=Love Hurts
EXTD=
EXTT0=
EXTT1=
EXTT2=
EXTT3=
EXTT4=
EXTT5=
EXTT6=
EXTT7=
EXTT8=
EXTT9=
EXTT10=
PLAYORDER=
